<svg width="20" height="20" viewBox="0 0 20 20" fill="none" xmlns="http://www.w3.org/2000/svg">
<path d="M6.45972 1.81836C6.61162 1.81836 6.75729 1.8787 6.8647 1.98611C6.97211 2.09351 7.03245 2.23919 7.03245 2.39109V3.46209H13.1827V2.39845C13.1827 2.24655 13.2431 2.10088 13.3505 1.99347C13.4579 1.88606 13.6036 1.82572 13.7554 1.82572C13.9073 1.82572 14.053 1.88606 14.1604 1.99347C14.2678 2.10088 14.3282 2.24655 14.3282 2.39845V3.46209H16.5454C16.9793 3.46209 17.3954 3.63438 17.7022 3.94108C18.0091 4.24778 18.1816 4.66378 18.1818 5.09763V16.5464C18.1816 16.9803 18.0091 17.3963 17.7022 17.703C17.3954 18.0097 16.9793 18.182 16.5454 18.182H3.45454C3.02069 18.182 2.6046 18.0097 2.29775 17.703C1.99089 17.3963 1.81839 16.9803 1.81818 16.5464V5.09763C1.81839 4.66378 1.99089 4.24778 2.29775 3.94108C2.6046 3.63438 3.02069 3.46209 3.45454 3.46209H5.88699V2.39027C5.88721 2.23851 5.94765 2.09305 6.05503 1.98582C6.16242 1.87859 6.30797 1.81836 6.45972 1.81836ZM2.96363 8.15272V16.5464C2.96363 16.6109 2.97633 16.6748 3.001 16.7343C3.02567 16.7939 3.06183 16.848 3.10741 16.8936C3.153 16.9392 3.20712 16.9753 3.26668 17C3.32624 17.0247 3.39007 17.0374 3.45454 17.0374H16.5454C16.6099 17.0374 16.6738 17.0247 16.7333 17C16.7929 16.9753 16.847 16.9392 16.8926 16.8936C16.9382 16.848 16.9743 16.7939 16.999 16.7343C17.0237 16.6748 17.0364 16.6109 17.0364 16.5464V8.16418L2.96363 8.15272ZM7.27299 13.7794V15.1424H5.90909V13.7794H7.27299ZM10.6815 13.7794V15.1424H9.31845V13.7794H10.6815ZM14.0909 13.7794V15.1424H12.727V13.7794H14.0909ZM7.27299 10.5254V11.8885H5.90909V10.5254H7.27299ZM10.6815 10.5254V11.8885H9.31845V10.5254H10.6815ZM14.0909 10.5254V11.8885H12.727V10.5254H14.0909ZM5.88699 4.60672H3.45454C3.39007 4.60672 3.32624 4.61942 3.26668 4.64409C3.20712 4.66876 3.153 4.70492 3.10741 4.75051C3.06183 4.79609 3.02567 4.85021 3.001 4.90977C2.97633 4.96933 2.96363 5.03316 2.96363 5.09763V7.00809L17.0364 7.01954V5.09763C17.0364 5.03316 17.0237 4.96933 16.999 4.90977C16.9743 4.85021 16.9382 4.79609 16.8926 4.75051C16.847 4.70492 16.7929 4.66876 16.7333 4.64409C16.6738 4.61942 16.6099 4.60672 16.5454 4.60672H14.3282V5.36681C14.3282 5.51871 14.2678 5.66439 14.1604 5.77179C14.053 5.8792 13.9073 5.93954 13.7554 5.93954C13.6036 5.93954 13.4579 5.8792 13.3505 5.77179C13.2431 5.66439 13.1827 5.51871 13.1827 5.36681V4.60672H7.03245V5.35945C7.03245 5.51135 6.97211 5.65702 6.8647 5.76443C6.75729 5.87184 6.61162 5.93218 6.45972 5.93218C6.30782 5.93218 6.16215 5.87184 6.05474 5.76443C5.94733 5.65702 5.88699 5.51135 5.88699 5.35945V4.60672Z" fill="#9E9E9E" stroke="#9E9E9E" stroke-width="0.4"/>
</svg>
