<svg width="20" height="20" viewBox="0 0 20 20" fill="none" xmlns="http://www.w3.org/2000/svg">
<path d="M9.68848 2.50024C5.71934 2.50024 2.50098 5.7186 2.50098 9.68774C2.50098 13.6569 5.71934 16.8752 9.68848 16.8752C13.6576 16.8752 16.876 13.6569 16.876 9.68774C16.876 5.7186 13.6576 2.50024 9.68848 2.50024Z" stroke="white" stroke-width="1.00189" stroke-miterlimit="10"/>
<path d="M8.59375 8.59467H9.84426V13.1278" stroke="white" stroke-width="1.00189" stroke-linecap="round" stroke-linejoin="round"/>
<path d="M8.125 13.2817H11.565" stroke="white" stroke-width="1.00189" stroke-miterlimit="10" stroke-linecap="round"/>
<path d="M9.69139 5.0788C9.48994 5.0788 9.29302 5.13853 9.12552 5.25045C8.95802 5.36237 8.82747 5.52144 8.75038 5.70755C8.67329 5.89367 8.65312 6.09846 8.69242 6.29604C8.73172 6.49361 8.82873 6.6751 8.97117 6.81754C9.11362 6.95999 9.2951 7.05699 9.49268 7.09629C9.69026 7.13559 9.89505 7.11542 10.0812 7.03833C10.2673 6.96124 10.4263 6.83069 10.5383 6.6632C10.6502 6.4957 10.7099 6.29878 10.7099 6.09733C10.7099 5.8272 10.6026 5.56813 10.4116 5.37712C10.2206 5.18611 9.96152 5.0788 9.69139 5.0788Z" fill="white"/>
</svg>
