<svg width="20" height="20" viewBox="0 0 20 20" fill="none" xmlns="http://www.w3.org/2000/svg">
<g clip-path="url(#clip0_1415_10131)">
<mask id="mask0_1415_10131" style="mask-type:alpha" maskUnits="userSpaceOnUse" x="0" y="0" width="21" height="21">
<rect x="0.142578" y="0.161865" width="20" height="20" fill="#D9D9D9"/>
</mask>
<g mask="url(#mask0_1415_10131)">
<path d="M5.14274 18.4952C4.68441 18.4952 4.29205 18.332 3.96566 18.0057C3.63927 17.6793 3.47607 17.2869 3.47607 16.8286V8.49524C3.47607 8.03691 3.63927 7.64454 3.96566 7.31816C4.29205 6.99177 4.68441 6.82857 5.14274 6.82857H12.6427V5.16191C12.6427 4.46746 12.3997 3.87718 11.9136 3.39107C11.4275 2.90496 10.8372 2.66191 10.1427 2.66191C9.55941 2.66191 9.04899 2.83899 8.61149 3.19316C8.17399 3.54732 7.87885 3.98829 7.72607 4.51607C7.67052 4.71052 7.55594 4.86677 7.38232 4.98482C7.20871 5.10288 7.01774 5.16191 6.80941 5.16191C6.5733 5.16191 6.37538 5.08552 6.21566 4.93274C6.05594 4.77996 5.99691 4.59941 6.03857 4.39107C6.23302 3.43274 6.71219 2.62718 7.47607 1.97441C8.23996 1.32163 9.12885 0.995239 10.1427 0.995239C11.2955 0.995239 12.2782 1.40149 13.0907 2.21399C13.9032 3.02649 14.3094 4.00913 14.3094 5.16191V6.82857H15.1427C15.6011 6.82857 15.9934 6.99177 16.3198 7.31816C16.6462 7.64454 16.8094 8.03691 16.8094 8.49524V16.8286C16.8094 17.2869 16.6462 17.6793 16.3198 18.0057C15.9934 18.332 15.6011 18.4952 15.1427 18.4952H5.14274ZM5.14274 16.8286H15.1427V8.49524H5.14274V16.8286ZM10.1427 14.3286C10.6011 14.3286 10.9934 14.1654 11.3198 13.839C11.6462 13.5126 11.8094 13.1202 11.8094 12.6619C11.8094 12.2036 11.6462 11.8112 11.3198 11.4848C10.9934 11.1584 10.6011 10.9952 10.1427 10.9952C9.68441 10.9952 9.29205 11.1584 8.96566 11.4848C8.63927 11.8112 8.47607 12.2036 8.47607 12.6619C8.47607 13.1202 8.63927 13.5126 8.96566 13.839C9.29205 14.1654 9.68441 14.3286 10.1427 14.3286Z" fill="#E0E0E0"/>
</g>
</g>
<defs>
<clipPath id="clip0_1415_10131">
<rect width="20.0035" height="20.0035" fill="white"/>
</clipPath>
</defs>
</svg>
