<svg width="20" height="20" viewBox="0 0 20 20" fill="none" xmlns="http://www.w3.org/2000/svg">
<mask id="mask0_534_6085" style="mask-type:alpha" maskUnits="userSpaceOnUse" x="0" y="0" width="20" height="21">
<rect y="0.00341797" width="20" height="20" fill="#D9D9D9"/>
</mask>
<g mask="url(#mask0_534_6085)">
<path d="M4.16667 17.5034C3.70833 17.5034 3.31597 17.3402 2.98958 17.0138C2.66319 16.6874 2.5 16.2951 2.5 15.8368V4.17008C2.5 3.71175 2.66319 3.31939 2.98958 2.993C3.31597 2.66661 3.70833 2.50342 4.16667 2.50342H10V4.17008H4.16667V15.8368H10V17.5034H4.16667ZM13.3333 14.1701L12.1875 12.9618L14.3125 10.8368H7.5V9.17008H14.3125L12.1875 7.04508L13.3333 5.83675L17.5 10.0034L13.3333 14.1701Z" fill="#E0E0E0"/>
</g>
</svg>
