<svg width="20" height="20" viewBox="0 0 20 20" fill="none" xmlns="http://www.w3.org/2000/svg">
<mask id="mask0_607_3174" style="mask-type:alpha" maskUnits="userSpaceOnUse" x="0" y="0" width="24" height="24">
<rect width="24" height="24" fill="#D9D9D9"/>
</mask>
<g mask="url(#mask0_607_3174)">
<path d="M4.87581 14.2501C5.58415 13.7084 6.37581 13.2813 7.25081 12.9688C8.12581 12.6563 9.04248 12.5001 10.0008 12.5001C10.9591 12.5001 11.8758 12.6563 12.7508 12.9688C13.6258 13.2813 14.4175 13.7084 15.1258 14.2501C15.6119 13.6806 15.9904 13.0348 16.2612 12.3126C16.5321 11.5904 16.6675 10.8195 16.6675 10.0001C16.6675 8.15286 16.0182 6.57994 14.7196 5.28133C13.421 3.98272 11.848 3.33341 10.0008 3.33341C8.15359 3.33341 6.58067 3.98272 5.28206 5.28133C3.98345 6.57994 3.33415 8.15286 3.33415 10.0001C3.33415 10.8195 3.46956 11.5904 3.7404 12.3126C4.01123 13.0348 4.3897 13.6806 4.87581 14.2501ZM10.0008 10.8334C9.18137 10.8334 8.4904 10.5522 7.9279 9.98967C7.3654 9.42716 7.08415 8.73619 7.08415 7.91675C7.08415 7.0973 7.3654 6.40633 7.9279 5.84383C8.4904 5.28133 9.18137 5.00008 10.0008 5.00008C10.8203 5.00008 11.5112 5.28133 12.0737 5.84383C12.6362 6.40633 12.9175 7.0973 12.9175 7.91675C12.9175 8.73619 12.6362 9.42716 12.0737 9.98967C11.5112 10.5522 10.8203 10.8334 10.0008 10.8334ZM10.0008 18.3334C8.84804 18.3334 7.7647 18.1147 6.75081 17.6772C5.73692 17.2397 4.85498 16.6459 4.10498 15.8959C3.35498 15.1459 2.76123 14.264 2.32373 13.2501C1.88623 12.2362 1.66748 11.1529 1.66748 10.0001C1.66748 8.8473 1.88623 7.76397 2.32373 6.75008C2.76123 5.73619 3.35498 4.85425 4.10498 4.10425C4.85498 3.35425 5.73692 2.7605 6.75081 2.323C7.7647 1.8855 8.84804 1.66675 10.0008 1.66675C11.1536 1.66675 12.2369 1.8855 13.2508 2.323C14.2647 2.7605 15.1466 3.35425 15.8966 4.10425C16.6466 4.85425 17.2404 5.73619 17.6779 6.75008C18.1154 7.76397 18.3341 8.8473 18.3341 10.0001C18.3341 11.1529 18.1154 12.2362 17.6779 13.2501C17.2404 14.264 16.6466 15.1459 15.8966 15.8959C15.1466 16.6459 14.2647 17.2397 13.2508 17.6772C12.2369 18.1147 11.1536 18.3334 10.0008 18.3334ZM10.0008 16.6667C10.7369 16.6667 11.4314 16.5591 12.0841 16.3438C12.7369 16.1286 13.3341 15.8195 13.8758 15.4167C13.3341 15.014 12.7369 14.7049 12.0841 14.4897C11.4314 14.2744 10.7369 14.1667 10.0008 14.1667C9.2647 14.1667 8.57026 14.2744 7.91748 14.4897C7.2647 14.7049 6.66748 15.014 6.12581 15.4167C6.66748 15.8195 7.2647 16.1286 7.91748 16.3438C8.57026 16.5591 9.2647 16.6667 10.0008 16.6667ZM10.0008 9.16675C10.3619 9.16675 10.6605 9.04869 10.8966 8.81258C11.1328 8.57647 11.2508 8.27786 11.2508 7.91675C11.2508 7.55564 11.1328 7.25703 10.8966 7.02091C10.6605 6.7848 10.3619 6.66675 10.0008 6.66675C9.6397 6.66675 9.34109 6.7848 9.10498 7.02091C8.86887 7.25703 8.75081 7.55564 8.75081 7.91675C8.75081 8.27786 8.86887 8.57647 9.10498 8.81258C9.34109 9.04869 9.6397 9.16675 10.0008 9.16675Z" fill="#E0E0E0"/>
</g>
</svg>
