<svg width="20" height="20" viewBox="0 0 20 20" fill="none" xmlns="http://www.w3.org/2000/svg">
<path d="M9.99991 11.8775C11.0362 11.8775 11.8763 11.0374 11.8763 10.0011C11.8763 8.96484 11.0362 8.12476 9.99991 8.12476C8.96362 8.12476 8.12354 8.96484 8.12354 10.0011C8.12354 11.0374 8.96362 11.8775 9.99991 11.8775Z" fill="#BDBDBD"/>
<path d="M18.3741 11.7195L18.3558 11.7046L17.123 10.7378C17.0449 10.6761 16.9826 10.5967 16.9412 10.5062C16.8997 10.4156 16.8804 10.3166 16.8847 10.2171V9.76558C16.8808 9.66676 16.9004 9.56842 16.9419 9.47865C16.9833 9.38887 17.0456 9.31023 17.1234 9.24917L18.3558 8.28198L18.3741 8.26714C18.5642 8.10881 18.6918 7.88803 18.734 7.64428C18.7762 7.40053 18.7303 7.14971 18.6046 6.93667L16.9362 4.04995C16.9343 4.04723 16.9326 4.04435 16.9312 4.04136C16.8048 3.83127 16.6087 3.67208 16.3772 3.59145C16.1456 3.51081 15.8932 3.51382 15.6636 3.59995L15.6499 3.60503L14.2007 4.18823C14.1092 4.22522 14.0103 4.23993 13.912 4.23117C13.8137 4.22241 13.7189 4.19042 13.6355 4.13784C13.5073 4.05711 13.3771 3.98081 13.2448 3.90894C13.1591 3.86242 13.0854 3.7964 13.0299 3.7162C12.9743 3.636 12.9383 3.54386 12.9249 3.44722L12.7066 1.90073L12.7019 1.87261C12.6543 1.63308 12.5258 1.41721 12.3379 1.26128C12.1499 1.10535 11.914 1.01886 11.6698 1.01636H8.32922C8.08158 1.01715 7.84218 1.10531 7.65317 1.2653C7.46416 1.4253 7.33768 1.64686 7.29601 1.89097L7.2925 1.91284L7.07492 3.46245C7.06157 3.55882 7.02591 3.65074 6.97078 3.7309C6.91565 3.81106 6.84256 3.87724 6.75734 3.92417C6.62375 3.99605 6.49328 4.07222 6.36672 4.15151C6.28338 4.20377 6.18884 4.23552 6.09085 4.24414C5.99286 4.25277 5.89423 4.23802 5.80305 4.20112L4.35265 3.61519L4.33898 3.60972C4.10909 3.52349 3.85623 3.5206 3.62442 3.60153C3.39261 3.68247 3.19651 3.84211 3.07023 4.05269L3.06516 4.06128L1.39445 6.94995C1.26853 7.16321 1.22257 7.41431 1.26479 7.65834C1.30701 7.90238 1.43467 8.12343 1.62492 8.28198L1.64328 8.29683L2.87609 9.26363C2.95416 9.32539 3.01647 9.40479 3.05789 9.4953C3.09931 9.58582 3.11867 9.68488 3.11437 9.78433V10.2359C3.11829 10.3347 3.09869 10.4331 3.0572 10.5228C3.01571 10.6126 2.9535 10.6912 2.8757 10.7523L1.64328 11.7195L1.62492 11.7343C1.43485 11.8927 1.3073 12.1134 1.26508 12.3572C1.22286 12.6009 1.26872 12.8518 1.39445 13.0648L3.06281 15.9515C3.06473 15.9542 3.06643 15.9571 3.06789 15.9601C3.1943 16.1702 3.39031 16.3294 3.62186 16.41C3.85342 16.4907 4.1059 16.4876 4.33547 16.4015L4.34914 16.3964L5.79719 15.8132C5.88866 15.7763 5.9876 15.7615 6.08588 15.7703C6.18415 15.7791 6.27894 15.811 6.36242 15.8636C6.49054 15.9446 6.62075 16.0209 6.75304 16.0925C6.83882 16.139 6.91246 16.2051 6.96803 16.2853C7.0236 16.3655 7.05955 16.4576 7.07297 16.5543L7.29015 18.1007L7.29484 18.1289C7.34246 18.3688 7.47134 18.585 7.65976 18.7409C7.84819 18.8969 8.08462 18.9831 8.32922 18.9851H11.6698C11.9175 18.9843 12.1569 18.8962 12.3459 18.7362C12.5349 18.5762 12.6614 18.3546 12.703 18.1105L12.7066 18.0886L12.9241 16.539C12.9377 16.4425 12.9736 16.3504 13.0291 16.2703C13.0846 16.1901 13.1581 16.124 13.2437 16.0773C13.3773 16.0054 13.5077 15.9293 13.6343 15.85C13.7176 15.7977 13.8122 15.766 13.9102 15.7573C14.0081 15.7487 14.1068 15.7634 14.198 15.8003L15.6484 16.3843L15.662 16.3898C15.8919 16.4762 16.1448 16.4792 16.3767 16.3982C16.6085 16.3173 16.8046 16.1575 16.9308 15.9468C16.9323 15.9439 16.934 15.941 16.9359 15.9382L18.6042 13.0519C18.7304 12.8387 18.7765 12.5875 18.7343 12.3434C18.6922 12.0992 18.5645 11.8781 18.3741 11.7195ZM13.121 10.1476C13.0926 10.7525 12.889 11.3361 12.535 11.8275C12.181 12.3188 11.6919 12.6968 11.1271 12.9153C10.5623 13.1338 9.94622 13.1835 9.35371 13.0584C8.76119 12.9332 8.21781 12.6386 7.78962 12.2104C7.36144 11.7822 7.0669 11.2387 6.94183 10.6462C6.81677 10.0537 6.86655 9.43758 7.08514 8.87283C7.30373 8.30807 7.6817 7.819 8.17309 7.46507C8.66449 7.11115 9.24813 6.90762 9.85304 6.87925C10.2873 6.86013 10.7208 6.93159 11.126 7.08908C11.5312 7.24657 11.8991 7.48664 12.2065 7.79404C12.5139 8.10144 12.7539 8.46944 12.9113 8.87463C13.0688 9.27981 13.1402 9.71333 13.121 10.1476Z" fill="#BDBDBD"/>
</svg>
