<svg width="20" height="20" viewBox="0 0 20 20" fill="none" xmlns="http://www.w3.org/2000/svg">
<mask id="mask0_2998_2455" style="mask-type:alpha" maskUnits="userSpaceOnUse" x="0" y="0" width="20" height="20">
<rect width="20" height="20" fill="#D9D9D9"/>
</mask>
<g mask="url(#mask0_2998_2455)">
<path d="M9.16658 15.8332H10.8333V12.354L12.1666 13.6873L13.3333 12.4998L9.99992 9.1665L6.66659 12.4998L7.85409 13.6665L9.16658 12.354V15.8332ZM4.99992 18.3332C4.54159 18.3332 4.14922 18.17 3.82284 17.8436C3.49645 17.5172 3.33325 17.1248 3.33325 16.6665V3.33317C3.33325 2.87484 3.49645 2.48248 3.82284 2.15609C4.14922 1.8297 4.54159 1.6665 4.99992 1.6665H11.6666L16.6666 6.6665V16.6665C16.6666 17.1248 16.5034 17.5172 16.177 17.8436C15.8506 18.17 15.4583 18.3332 14.9999 18.3332H4.99992ZM10.8333 7.49984V3.33317H4.99992V16.6665H14.9999V7.49984H10.8333Z" fill="#151515"/>
</g>
</svg>
