<svg width="21" height="20" viewBox="0 0 21 20" fill="none" xmlns="http://www.w3.org/2000/svg">
<path d="M3.84255 17.4321H17.1574C17.3736 17.432 17.5862 17.3759 17.7743 17.2691C17.9623 17.1624 18.1195 17.0086 18.2304 16.823C18.3412 16.6373 18.4021 16.4261 18.4069 16.2099C18.4117 15.9937 18.3603 15.7799 18.2578 15.5895L11.6008 3.22621C11.1285 2.34965 9.87146 2.34965 9.39919 3.22621L2.74216 15.5895C2.63964 15.7799 2.58828 15.9937 2.59308 16.2099C2.59789 16.4261 2.6587 16.6373 2.76958 16.823C2.88046 17.0086 3.03762 17.1624 3.22568 17.2691C3.41375 17.3759 3.62629 17.432 3.84255 17.4321V17.4321Z" stroke="white" stroke-width="1.00189" stroke-linecap="round" stroke-linejoin="round"/>
<path d="M10.2755 7.63341L10.4998 12.3997L10.7237 7.63536C10.725 7.6049 10.7202 7.57448 10.7094 7.54596C10.6986 7.51744 10.6822 7.49141 10.661 7.46947C10.6398 7.44753 10.6144 7.43014 10.5863 7.41836C10.5582 7.40658 10.5279 7.40065 10.4974 7.40095V7.40095C10.4675 7.40124 10.4379 7.40754 10.4104 7.41945C10.3829 7.43137 10.3581 7.44868 10.3374 7.47034C10.3167 7.49201 10.3006 7.51761 10.29 7.54561C10.2794 7.57362 10.2744 7.60347 10.2755 7.63341V7.63341Z" stroke="white" stroke-width="1.00189" stroke-linecap="round" stroke-linejoin="round"/>
<path d="M10.5038 15.5252C10.3485 15.5252 10.1967 15.4792 10.0676 15.3929C9.93854 15.3067 9.83792 15.1841 9.77851 15.0406C9.71909 14.8972 9.70354 14.7393 9.73383 14.5871C9.76412 14.4348 9.83889 14.2949 9.94868 14.1851C10.0585 14.0753 10.1983 14.0006 10.3506 13.9703C10.5029 13.94 10.6607 13.9555 10.8042 14.015C10.9476 14.0744 11.0702 14.175 11.1565 14.3041C11.2427 14.4332 11.2888 14.585 11.2888 14.7402C11.2888 14.9484 11.2061 15.1481 11.0589 15.2953C10.9116 15.4425 10.712 15.5252 10.5038 15.5252Z" fill="white"/>
</svg>
