<svg width="319" height="30" viewBox="0 0 319 30" fill="none" xmlns="http://www.w3.org/2000/svg">
<g clip-path="url(#clip0_52_297)">
<mask id="mask0_52_297" style="mask-type:luminance" maskUnits="userSpaceOnUse" x="0" y="0" width="319" height="30">
<path d="M319 0H0V30H319V0Z" fill="white"/>
</mask>
<g mask="url(#mask0_52_297)">
<path d="M0 30.004V0.00115967H30.6971V4.76143H5.78089V12.3167H30.6971V17.077H5.78089V25.2437H30.6971V30.004H0Z" fill="white"/>
<path d="M139.836 30.0037V0.00372314H145.621V30.0037H139.836Z" fill="white"/>
<path d="M165.215 30.0037V4.98187H151.404V0.00372314H184.81V4.98187H170.999V30.0037H165.215Z" fill="white"/>
<path d="M190.553 30.0037V0.00372314H221.266V4.76355H196.337V12.3182H221.266V17.078H196.337V25.2439H221.266V30.0037H190.553Z" fill="white"/>
<path d="M117.277 30.0037C115.111 30.0037 113.061 29.8771 111.126 29.624C109.191 29.3708 107.487 28.9067 106.015 28.2316C104.542 27.5564 103.387 26.6282 102.549 25.4467C101.741 24.2372 101.336 22.676 101.336 20.7632C101.336 20.6788 101.336 20.5945 101.336 20.51C101.336 20.3975 101.351 20.3132 101.38 20.2569H106.924C106.895 20.3694 106.867 20.51 106.837 20.6788C106.837 20.8476 106.837 21.0445 106.837 21.2696C106.837 22.226 107.256 23.0276 108.094 23.6746C108.931 24.2935 110.13 24.7576 111.689 25.067C113.249 25.3483 115.082 25.489 117.19 25.489C118.143 25.489 119.082 25.4467 120.006 25.3624C120.959 25.278 121.854 25.1514 122.692 24.9826C123.529 24.7857 124.265 24.5466 124.901 24.2653C125.565 23.9559 126.084 23.5761 126.46 23.1261C126.864 22.676 127.067 22.1556 127.067 21.5649C127.067 20.721 126.72 20.0459 126.027 19.5396C125.334 19.0051 124.395 18.5832 123.211 18.2738C122.027 17.9362 120.684 17.669 119.183 17.4721C117.71 17.247 116.18 17.022 114.591 16.797C113.032 16.5438 111.516 16.2203 110.043 15.8265C108.57 15.4327 107.242 14.9264 106.058 14.3075C104.874 13.6887 103.936 12.887 103.242 11.9025C102.549 10.8898 102.203 9.65213 102.203 8.18937C102.203 6.92355 102.506 5.7984 103.112 4.81384C103.748 3.80119 104.686 2.94325 105.928 2.24001C107.17 1.50864 108.729 0.960122 110.606 0.594439C112.483 0.200629 114.692 0.00372314 117.234 0.00372314C119.804 0.00372314 121.998 0.214694 123.818 0.636638C125.637 1.05858 127.124 1.64929 128.279 2.40879C129.435 3.14015 130.272 3.9981 130.792 4.98263C131.34 5.96714 131.615 7.02202 131.615 8.1472V8.86451H126.157V8.18937C126.157 7.51427 125.796 6.90949 125.074 6.37503C124.381 5.81246 123.385 5.36236 122.085 5.02484C120.814 4.68727 119.327 4.51849 117.623 4.51849C115.4 4.51849 113.58 4.6732 112.166 4.98263C110.751 5.26394 109.696 5.65773 109.003 6.16408C108.339 6.67039 108.007 7.27517 108.007 7.97842C108.007 8.70977 108.339 9.31455 109.003 9.79276C109.696 10.2428 110.635 10.6085 111.819 10.8898C113.003 11.1711 114.332 11.4243 115.804 11.6493C117.306 11.8462 118.836 12.0712 120.396 12.3244C121.984 12.5776 123.515 12.9011 124.987 13.2949C126.46 13.6605 127.789 14.1669 128.972 14.8138C130.156 15.4608 131.095 16.2766 131.788 17.2611C132.481 18.2457 132.828 19.4552 132.828 20.8898C132.828 23.112 132.163 24.8982 130.835 26.2485C129.535 27.5706 127.716 28.527 125.377 29.1176C123.067 29.7084 120.367 30.0037 117.277 30.0037Z" fill="white"/>
<path d="M270.036 30.0037V0.00372314H275.815V30.0037H270.036Z" fill="white"/>
<path d="M284.998 30.0037V0.00372314H300.991C304.754 0.00372314 307.965 0.585964 310.623 1.75045C313.311 2.88582 315.372 4.57432 316.805 6.81594C318.269 9.02847 319 11.765 319 15.0256C319 18.2861 318.269 21.0226 316.805 23.2352C315.372 25.4477 313.311 27.1362 310.623 28.3007C307.965 29.436 304.754 30.0037 300.991 30.0037H284.998ZM290.777 25.2439H300.722C302.484 25.2439 304.112 25.0547 305.606 24.6762C307.099 24.2978 308.398 23.7155 309.503 22.9295C310.608 22.1143 311.474 21.0954 312.101 19.8727C312.728 18.6209 313.042 17.1653 313.042 15.5059V14.5015C313.042 12.8422 312.728 11.4011 312.101 10.1784C311.474 8.95569 310.608 7.95131 309.503 7.1653C308.398 6.35014 307.099 5.75336 305.606 5.3749C304.112 4.96735 302.484 4.76355 300.722 4.76355H290.777V25.2439Z" fill="white"/>
<path d="M77.1855 17.4799V12.4958H90.8567V17.4799H77.1855Z" fill="white"/>
<path d="M62.7396 0H58.8793H54.456H33.2437V4.87041H52.0048H56.4287H60.2826H58.3172L55.4742 9.01031H61.8698L64.7128 4.87041H64.7064L67.2189 1.24495V0H62.7396Z" fill="white"/>
<path d="M37.6208 29.9908H41.4809H45.9047H67.1169V25.1204H48.3555H43.9317H40.0778H42.0431L44.8861 20.9805H38.4909L35.6478 25.1204H35.654L33.1416 28.7459V29.9908H37.6208Z" fill="white"/>
<path d="M53.8513 7.86749H48.1926L40.8486 18.062H46.5075L53.8513 7.86749Z" fill="#FFB829"/>
<path d="M59.724 11.9454H53.8829L46.3018 22.1399H52.1433L59.724 11.9454Z" fill="#FFB829"/>
<path d="M230.854 30.0037V0.00372314H253.812C255.516 0.00372314 257.011 0.3094 258.297 0.920753C259.612 1.53211 260.628 2.37636 261.345 3.45351C262.063 4.53065 262.422 5.8116 262.422 7.29632C262.422 8.46078 262.198 9.52337 261.749 10.4841C261.301 11.4156 260.688 12.2017 259.911 12.8422C259.134 13.4826 258.237 13.9629 257.22 14.2832V14.4579C258.416 14.6908 259.462 15.142 260.359 15.8116C261.286 16.452 262.003 17.2817 262.512 18.3007C263.049 19.3196 263.319 20.5132 263.319 21.8814C263.319 23.7447 262.885 25.273 262.018 26.4666C261.181 27.6602 260.045 28.5481 258.611 29.1304C257.176 29.7126 255.576 30.0037 253.812 30.0037H230.854ZM236.638 25.2439H252.781C254.156 25.2439 255.262 24.9236 256.099 24.2832C256.966 23.6427 257.4 22.6238 257.4 21.2264C257.4 20.3531 257.205 19.6107 256.817 18.9993C256.458 18.3589 255.92 17.8786 255.202 17.5583C254.485 17.2381 253.618 17.078 252.602 17.078H236.638V25.2439ZM236.638 12.4055H251.794C252.721 12.4055 253.529 12.2454 254.216 11.9251C254.933 11.6049 255.486 11.1536 255.875 10.5714C256.294 9.96008 256.503 9.26137 256.503 8.47536C256.503 7.1944 256.114 6.26284 255.337 5.68058C254.59 5.06922 253.588 4.76355 252.333 4.76355H236.638V12.4055Z" fill="white"/>
</g>
</g>
<defs>
<clipPath id="clip0_52_297">
<rect width="319" height="30" fill="white"/>
</clipPath>
</defs>
</svg>
